<?xml version="1.0" standalone="no"?>
<!DOCTYPE svg PUBLIC "-//W3C//DTD SVG 20010904//EN"
 "http://www.w3.org/TR/2001/REC-SVG-20010904/DTD/svg10.dtd">
<svg version="1.0" xmlns="http://www.w3.org/2000/svg"
 width="104.000000pt" height="104.000000pt" viewBox="0 0 104.000000 104.000000"
 preserveAspectRatio="xMidYMid meet">
<metadata>
Created by potrace 1.11, written by Peter Selinger 2001-2013
</metadata>
<g transform="translate(0.000000,104.000000) scale(0.100000,-0.100000)"
fill="#000000" stroke="none">
<path d="M640 660 c-63 -40 -102 -58 -117 -55 -26 4 -30 0 -37 -38 -6 -35 -14
-47 -32 -47 -10 0 -13 10 -12 31 4 41 -19 50 -27 12 -12 -51 -13 -52 -50 -49
-39 3 -46 -8 -15 -24 21 -11 18 -33 -4 -28 -6 2 -12 -1 -14 -7 -3 -17 49 -24
142 -19 50 3 115 6 144 8 54 2 100 26 51 26 -22 1 -20 3 15 25 21 13 42 29 47
36 4 8 23 12 42 11 l35 -2 -2 76 -2 76 -33 14 c-18 8 -34 14 -35 13 0 0 -44
-27 -96 -59z m-45 -59 c3 -5 0 -13 -6 -17 -7 -4 -9 -3 -5 4 3 5 0 13 -6 15 -9
4 -10 6 -1 6 6 1 14 -3 18 -8z m-25 -32 c0 -5 -4 -9 -9 -9 -5 0 -16 -3 -25 -6
-10 -4 -16 -1 -16 9 0 9 10 15 25 15 14 0 25 -4 25 -9z"/>
<path d="M220 663 c0 -6 4 -14 10 -18 5 -3 7 -12 4 -19 -4 -11 6 -13 45 -11
34 3 51 0 54 -9 8 -20 -19 -53 -52 -64 -29 -10 -30 -10 -20 14 14 37 11 44
-15 44 -24 0 -27 -6 -55 -91 -16 -51 -14 -59 14 -59 17 0 26 7 30 23 4 16 22
29 66 46 67 26 99 54 99 87 0 35 -26 48 -98 48 -37 0 -70 5 -74 11 -5 6 -8 6
-8 -2z"/>
<path d="M424 629 c-3 -6 -2 -15 4 -21 13 -13 32 -2 32 18 0 16 -26 19 -36 3z"/>
</g>
</svg>
