<?xml version="1.0" standalone="no"?>
<!DOCTYPE svg PUBLIC "-//W3C//DTD SVG 20010904//EN"
 "http://www.w3.org/TR/2001/REC-SVG-20010904/DTD/svg10.dtd">
<svg version="1.0" xmlns="http://www.w3.org/2000/svg"
 width="500.000000pt" height="500.000000pt" viewBox="0 0 500.000000 500.000000"
 preserveAspectRatio="xMidYMid meet">
<metadata>
Created by potrace 1.11, written by Peter Selinger 2001-2013
</metadata>
<g transform="translate(0.000000,500.000000) scale(0.100000,-0.100000)"
fill="#000000" stroke="none">
<path d="M450 3415 c0 -8 9 -15 19 -15 10 0 21 7 25 15 4 11 -1 15 -19 15 -16
0 -25 -6 -25 -15z"/>
<path d="M615 3415 c-3 -8 -7 -22 -10 -30 -3 -12 5 -15 35 -15 28 0 40 4 40
14 0 8 3 21 6 30 5 13 -1 16 -30 16 -24 0 -38 -5 -41 -15z"/>
<path d="M486 3364 c-13 -34 -6 -44 28 -44 32 0 45 15 46 53 0 15 -68 7 -74
-9z"/>
<path d="M729 3323 c-6 -16 -13 -40 -16 -55 -5 -28 -5 -28 52 -28 55 0 57 -1
51 -22 -4 -13 -9 -35 -12 -50 -6 -27 -9 -28 -65 -28 l-58 0 -11 -42 c-6 -24
-13 -49 -15 -55 -3 -10 70 -13 343 -13 456 1 528 -10 572 -83 33 -53 28 -165
-10 -246 -56 -118 -206 -236 -400 -315 -107 -44 -254 -87 -258 -76 -3 9 -1 16
102 343 36 115 66 215 66 223 0 12 -37 14 -219 14 -121 0 -222 -4 -225 -8 -3
-5 -90 -281 -194 -613 -104 -332 -192 -614 -196 -626 l-7 -23 228 0 228 0 65
212 65 211 115 27 c674 155 1105 424 1190 742 19 71 9 231 -17 290 -33 72
-102 140 -180 176 -117 53 -206 65 -488 66 l-250 1 -34 -127 c-19 -70 -36
-126 -39 -124 -2 3 10 58 27 124 17 65 31 122 31 125 0 4 -97 7 -215 7 l-215
0 -11 -27z m378 -265 c-3 -8 -6 -5 -6 6 -1 11 2 17 5 13 3 -3 4 -12 1 -19z"/>
<path d="M577 3323 c-3 -5 -9 -25 -15 -45 l-10 -38 53 0 53 0 10 40 c5 21 7
42 4 45 -8 8 -90 6 -95 -2z"/>
<path d="M2446 3235 c-76 -27 -136 -115 -136 -199 1 -48 35 -113 72 -136 111
-68 257 37 258 185 0 69 -26 115 -80 143 -51 25 -61 26 -114 7z"/>
<path d="M2945 2886 c-13 -13 -27 -35 -30 -48 -21 -87 -235 -1177 -235 -1195
0 -13 9 -32 20 -43 19 -19 33 -20 373 -20 401 0 375 -6 403 86 20 67 18 111
-5 124 -12 6 -112 10 -255 10 -130 0 -236 3 -236 8 0 4 16 83 35 176 19 93 35
173 35 177 0 5 97 9 216 9 l215 0 19 43 c26 59 36 133 20 152 -10 12 -48 15
-216 15 -112 0 -204 4 -204 8 0 5 14 76 30 157 17 81 30 150 30 152 0 1 110 3
244 3 269 0 264 -1 285 63 6 18 12 58 14 88 l2 54 -368 3 -368 2 -24 -24z"/>
<path d="M4024 2896 c-17 -8 -35 -26 -42 -42 -14 -36 -242 -1177 -242 -1211 0
-13 5 -33 10 -44 10 -18 25 -19 380 -19 l370 0 13 23 c24 38 41 141 28 166
-11 21 -17 21 -256 21 -190 0 -245 3 -245 13 0 6 16 90 35 186 19 95 35 175
35 177 0 2 96 4 214 4 l214 0 17 27 c12 17 20 54 23 100 l5 73 -212 0 c-195 0
-211 1 -211 18 0 14 36 201 55 290 l5 22 251 0 250 0 18 43 c26 58 36 134 20
153 -16 20 -688 20 -735 0z"/>
<path d="M2308 2753 c-9 -11 -59 -236 -128 -577 -107 -537 -111 -560 -93 -574
23 -17 196 -13 214 5 20 20 240 1135 227 1150 -7 9 -40 13 -108 13 -80 0 -100
-3 -112 -17z"/>
</g>
</svg>
